<svg width="900" height="560" viewBox="0 0 900 560" fill="none" xmlns="http://www.w3.org/2000/svg">
  <rect width="900" height="560" rx="36" fill="#0B1120"/>
  <circle cx="450" cy="280" r="176" fill="#172554" opacity=".65"/>
  <circle cx="450" cy="280" r="116" fill="#1E293B" stroke="#38BDF8" stroke-width="6"/>
  <circle cx="450" cy="280" r="50" fill="#0F172A" stroke="#FACC15" stroke-width="5"/>
  <path d="M450 164V84M450 476V396M566 280H750M150 280H334M533 197L606 124M294 426L367 353M367 207L294 134M606 436L533 363" stroke="#7DD3FC" stroke-width="10" stroke-linecap="round"/>
  <circle cx="450" cy="84" r="18" fill="#FACC15"/>
  <circle cx="750" cy="280" r="18" fill="#FACC15"/>
  <circle cx="150" cy="280" r="18" fill="#FACC15"/>
  <circle cx="606" cy="124" r="18" fill="#FACC15"/>
  <circle cx="294" cy="134" r="18" fill="#FACC15"/>
  <text x="318" y="292" fill="#F8FAFC" font-family="Arial" font-size="40" font-weight="700">LLM + RAG</text>
  <text x="356" y="338" fill="#CBD5E1" font-family="Arial" font-size="24">NLP • SAV • BI</text>
</svg>
