<svg width="900" height="560" viewBox="0 0 900 560" fill="none" xmlns="http://www.w3.org/2000/svg">
  <rect width="900" height="560" rx="36" fill="#0F172A"/>
  <rect x="40" y="42" width="820" height="476" rx="28" fill="#111827" stroke="#334155"/>
  <rect x="72" y="78" width="240" height="92" rx="18" fill="#1E293B"/>
  <rect x="334" y="78" width="220" height="92" rx="18" fill="#1E293B"/>
  <rect x="576" y="78" width="252" height="92" rx="18" fill="#1E293B"/>
  <rect x="72" y="208" width="366" height="250" rx="22" fill="#1E293B"/>
  <rect x="462" y="208" width="366" height="250" rx="22" fill="#1E293B"/>
  <rect x="104" y="240" width="34" height="174" rx="8" fill="#FACC15"/>
  <rect x="158" y="292" width="34" height="122" rx="8" fill="#38BDF8"/>
  <rect x="212" y="264" width="34" height="150" rx="8" fill="#A78BFA"/>
  <rect x="266" y="322" width="34" height="92" rx="8" fill="#22C55E"/>
  <rect x="320" y="278" width="34" height="136" rx="8" fill="#FB7185"/>
  <path d="M520 391C560 326 613 292 672 289C724 286 760 309 790 245" stroke="#38BDF8" stroke-width="12" stroke-linecap="round"/>
  <circle cx="520" cy="391" r="10" fill="#FACC15"/>
  <circle cx="672" cy="289" r="10" fill="#FACC15"/>
  <circle cx="790" cy="245" r="10" fill="#FACC15"/>
  <text x="96" y="130" fill="#F8FAFC" font-family="Arial" font-size="30" font-weight="700">Power BI</text>
  <text x="358" y="130" fill="#F8FAFC" font-family="Arial" font-size="30" font-weight="700">DAX</text>
  <text x="604" y="130" fill="#F8FAFC" font-family="Arial" font-size="30" font-weight="700">RH Automation</text>
</svg>
