<svg width="900" height="560" viewBox="0 0 900 560" fill="none" xmlns="http://www.w3.org/2000/svg">
  <rect width="900" height="560" rx="36" fill="#0F172A"/>
  <rect x="110" y="95" width="680" height="370" rx="30" fill="#111827" stroke="#334155"/>
  <path d="M176 379C249 261 316 242 392 312C465 379 520 220 594 192C668 165 710 219 742 262" stroke="#22C55E" stroke-width="14" stroke-linecap="round"/>
  <path d="M176 230C256 186 316 188 392 245C451 289 502 290 560 249C624 203 681 179 742 180" stroke="#38BDF8" stroke-width="14" stroke-linecap="round" opacity=".85"/>
  <rect x="158" y="410" width="584" height="14" rx="7" fill="#475569"/>
  <rect x="158" y="136" width="190" height="26" rx="13" fill="#FACC15"/>
  <rect x="158" y="174" width="110" height="16" rx="8" fill="#64748B"/>
  <circle cx="742" cy="262" r="18" fill="#FACC15"/>
  <circle cx="594" cy="192" r="18" fill="#22C55E"/>
  <text x="158" y="72" fill="#F8FAFC" font-family="Arial" font-size="36" font-weight="700">Data Quality & Analytics</text>
</svg>
